<svg xmlns="http://www.w3.org/2000/svg" width="10" height="10" viewBox="0 -20 100 125">
  <path d="M1.57,62 C2.32027303,62.7511082 3.33836301,63.1731466 4.4,63.1731466 C5.46163699,63.1731466 6.47972697,62.7511082 7.23,62 L34.42,34.83 C35.1711082,34.079727 35.5931466,33.061637 35.5931466,32 C35.5931466,30.938363 35.1711082,29.920273 34.42,29.17 L7.23,2 C6.22794391,0.947166548 4.73363925,0.520747078 3.32686002,0.88618772 C1.92008078,1.25162836 0.822239763,2.35141247 0.459287363,3.75883573 C0.0963349632,5.16625899 0.525396213,6.65980725 1.58,7.66 L25.94,32 L1.58,56.34 C0.827564726,57.0889452 0.403726468,58.1062898 0.401850783,59.1679273 C0.399975099,60.2295648 0.820215865,61.2484007 1.57,62 Z" transform="matrix(-1 0 0 1 36 0)"/>
</svg>
