<svg class="icon" width="40" height="40" viewBox="0 0 38 32">
  <path class="path1" d="M36.358 17.454h-34.904c-0.803 0-1.454-0.65-1.454-1.454 0-0.803 0.651-1.454 1.454-1.454h34.904c0.803 0 1.454 0.651 1.454 1.454 0 0.804-0.651 1.454-1.454 1.454zM36.358 2.911h-34.904c-0.803 0-1.454-0.65-1.454-1.454s0.651-1.454 1.454-1.454h34.904c0.803 0 1.454 0.65 1.454 1.454s-0.651 1.454-1.454 1.454zM1.454 29.089h34.904c0.803 0 1.454 0.65 1.454 1.454s-0.651 1.454-1.454 1.454h-34.904c-0.803 0-1.454-0.65-1.454-1.454s0.651-1.454 1.454-1.454z"></path>
</svg>